<svg class="img-fluid" id="outputsvg" xmlns="http://www.w3.org/2000/svg" width="447" height="47" viewBox="0 0 44740 4720"><g id="lZpMxPWZZzWegbc5lAKQ2Z" fill="rgb(1,164,79)" style="transform: none; transform-origin: 50% 50%;"><g style="transform: none;"><path id="p17fP93Qc4" d="M3123 4472 l-52 -19 -41 -28 c-23 -16 -61 -50 -85 -77 l-43 -47 -21 -45 c-27 -58 -40 -118 -41 -181 l0 -51 15 -59 16 -60 32 -54 32 -53 40 -35 40 -35 56 -28 57 -29 66 -12 66 -12 66 12 66 12 60 30 59 30 39 35 40 36 31 55 31 54 14 52 14 52 0 63 0 63 -21 61 -20 61 -29 41 c-15 23 -49 61 -75 85 l-46 43 -57 25 -57 26 -100 4 -100 4 -52 -19z"></path><path id="pRr54TjLj" d="M5600 4279 l-45 -9 -71 -35 -72 -35 -59 -63 -59 -63 -27 -59 -28 -58 -10 -50 c-5 -27 -9 -75 -9 -106 l0 -57 15 -59 16 -59 27 -50 27 -51 59 -59 60 -59 -1525 7 -1524 7 -110 -119 c-60 -66 -182 -196 -270 -289 l-160 -168 20 -2 c11 -1 943 -7 2070 -13 l2050 -12 25 -16 c14 -8 51 -40 82 -70 l58 -55 25 -42 24 -42 9 -54 8 -54 -8 -54 -8 -54 -38 -71 -37 -70 -75 -75 -75 -76 -1140 0 -1140 -1 -96 -16 -96 -17 -64 -24 c-127 -48 -220 -114 -311 -222 l-60 -70 -48 -100 -48 -100 -26 -95 -25 -95 -10 -90 -11 -90 0 -101 0 -100 15 -114 15 -114 25 -81 24 -80 36 -60 36 -60 57 -58 57 -59 55 -38 c111 -76 234 -127 384 -159 l96 -21 1324 0 1325 0 5 43 c3 23 10 136 16 252 5 116 12 245 16 287 l5 77 -1293 4 -1293 3 -53 16 c-30 9 -74 26 -98 37 l-44 21 -39 35 -39 35 -23 53 -23 52 0 81 0 82 25 63 24 63 60 62 60 61 42 22 42 21 1193 0 1193 1 64 13 64 14 85 42 84 42 67 67 c77 76 118 132 167 231 67 136 106 270 125 435 l12 99 -6 151 -5 150 -22 88 c-25 103 -56 176 -106 254 l-36 56 -50 49 c-61 60 -151 122 -209 144 -24 10 -48 20 -54 24 -5 4 -50 18 -98 30 l-89 22 -69 1 c-38 1 -69 3 -69 4 0 1 26 27 59 57 l58 56 35 69 36 69 13 72 13 72 -13 76 -13 76 -31 66 -30 65 -62 61 -62 61 -56 27 -56 26 -63 15 -63 15 -45 -1 c-25 -1 -65 -5 -90 -10z"></path><path id="pUW7CZ3yP" d="M12940 2020 l0 -1240 390 0 390 0 0 1240 0 1240 -390 0 -390 0 0 -1240z"></path><path id="psPb0cyLn" d="M7090 3239 c0 -7 64 -181 141 -388 78 -207 211 -560 296 -786 84 -225 160 -426 168 -445 8 -19 37 -98 66 -175 29 -77 63 -169 76 -205 14 -36 40 -105 58 -155 19 -49 46 -121 60 -160 15 -38 32 -83 37 -100 6 -16 15 -36 21 -42 l9 -13 413 0 413 0 10 28 c5 15 123 329 262 697 564 1498 650 1729 650 1742 l0 13 -394 0 -394 0 -11 -32 c-16 -52 -111 -370 -111 -374 0 -2 -198 -4 -439 -4 l-439 0 -6 28 c-4 15 -30 107 -59 205 l-52 177 -387 0 -388 0 0 -11z m1595 -940 l6 -9 -132 -431 -132 -430 -7 8 c-7 8 -24 63 -177 567 l-84 279 5 14 6 14 255 -1 255 -1 5 -10z"></path><path id="pov81i45y" d="M10030 2010 l0 -1240 369 0 369 0 16 6 16 6 0 429 0 429 415 -2 416 -3 -1 -416 0 -416 6 -17 6 -16 379 0 379 0 0 1240 0 1240 -382 -2 -383 -3 -3 -496 -2 -497 -18 -4 c-13 -3 -673 -2 -789 1 l-23 1 -2 498 -3 497 -382 3 -383 2 0 -1240z"></path><path id="pwhUDqTdA" d="M14262 2013 l3 -1238 725 -3 725 -3 105 12 105 11 80 25 79 25 56 31 55 31 71 71 71 72 37 74 36 74 15 73 15 73 0 49 0 49 -15 73 -15 73 -32 65 -33 65 -65 66 -65 66 -85 43 -84 42 90 33 c49 17 111 44 136 59 l46 27 61 57 61 57 34 62 34 62 18 58 18 58 0 145 0 145 -27 80 -28 79 -44 66 -44 66 -54 52 c-30 28 -77 65 -103 82 l-49 31 -81 24 -80 25 -140 22 -139 21 -748 4 -747 4 2 -1238z m1281 696 l72 -11 43 -20 43 -20 30 -37 30 -36 15 -54 16 -54 -6 -44 -6 -43 -19 -38 c-35 -67 -86 -101 -186 -122 l-60 -13 -170 -2 c-94 -1 -201 1 -238 3 l-67 4 0 249 0 249 216 0 215 0 72 -11z m-10 -983 c26 -8 61 -25 77 -36 l28 -20 23 -48 23 -47 0 -70 0 -71 -28 -48 -28 -48 -54 -25 -54 -25 -63 -8 -62 -9 -177 6 -178 6 0 228 0 228 38 4 c20 3 120 3 222 2 l185 -4 48 -15z"></path><path id="p1BbgtxAcR" d="M16650 3243 c0 -6 99 -272 155 -418 13 -33 40 -105 60 -160 20 -55 47 -127 60 -160 13 -33 46 -121 74 -195 27 -74 169 -450 313 -835 l263 -700 419 0 419 0 149 395 c81 217 272 724 423 1125 151 402 292 777 314 835 23 58 41 108 41 113 l0 7 -398 0 -398 0 -61 -202 -60 -203 -438 0 -438 0 -39 135 c-21 74 -48 165 -59 203 l-20 67 -389 0 -390 0 0 -7z m1603 -940 c4 -8 -256 -859 -265 -869 l-5 -5 -28 88 c-57 184 -235 777 -235 785 l0 8 264 0 265 0 4 -7z"></path><path id="p14eT3Y18b" d="M19600 2010 l0 -1240 354 0 353 0 69 100 c38 54 107 156 154 225 47 69 201 295 343 503 142 207 281 412 310 454 28 42 53 75 56 73 2 -3 4 -307 5 -677 l1 -673 360 0 360 0 0 1235 0 1235 -361 3 -360 2 -90 -132 c-49 -73 -143 -212 -209 -308 -116 -169 -588 -861 -612 -897 l-12 -18 0 678 -1 677 -360 0 -360 0 0 -1240z"></path><path id="pzgUTkttI" d="M1560 2083 c-25 -12 -85 -53 -135 -91 l-90 -69 -63 -74 c-70 -81 -137 -181 -188 -276 l-33 -62 8 -5 8 -5 724 10 724 10 3 8 c8 22 162 293 192 336 46 68 102 132 160 181 l49 42 -467 6 c-257 3 -552 7 -657 9 l-189 3 -46 -23z"></path><path id="pz6bFRrqk" d="M740 692 c-25 -9 -64 -27 -87 -39 l-41 -23 -61 -56 c-110 -102 -199 -229 -261 -376 -16 -38 -30 -72 -30 -74 0 -2 444 -4 988 -4 l987 0 11 8 c6 4 55 81 109 172 54 91 132 218 172 283 40 65 73 120 73 123 0 2 -408 4 -907 4 l-908 -1 -45 -17z"></path></g></g><g id="l6UHGviPjVqPV7nD60EAmJz" fill="rgb(237,29,35)" style="transform: none; transform-origin: 50% 50%;"><g style="transform: none;"><path id="pzHGihfkj" d="M32055 3233 c-16 -2 -73 -10 -125 -19 l-95 -15 -90 -28 c-103 -32 -155 -57 -238 -113 l-59 -40 -91 -92 -92 -92 -57 -84 -57 -85 -29 -65 c-54 -121 -85 -236 -107 -389 l-15 -104 0 -156 0 -156 15 -105 15 -105 26 -95 26 -95 48 -101 49 -100 58 -80 59 -79 60 -53 c120 -108 262 -187 424 -236 l85 -26 100 -15 c55 -8 155 -18 223 -22 l123 -6 102 12 c159 19 226 32 312 58 l80 25 69 35 c91 46 163 100 243 182 l65 66 43 65 c52 80 112 197 137 269 l18 55 -7 6 c-5 4 -35 13 -68 20 -33 7 -96 21 -140 31 -44 10 -145 32 -225 49 -80 17 -162 35 -183 41 l-39 10 -6 -5 c-3 -3 -17 -34 -32 -69 -15 -35 -41 -85 -59 -111 l-33 -47 -24 -11 c-13 -6 -24 -14 -24 -18 0 -12 -105 -59 -166 -75 l-58 -15 -51 0 -51 0 -59 15 -60 15 -54 28 -54 27 -62 62 -62 61 -32 79 -31 78 -15 79 -15 80 -6 115 -6 116 11 113 c6 61 19 145 28 185 l16 72 30 65 31 65 48 47 48 46 54 26 55 26 53 11 53 12 95 -6 95 -5 45 -17 c24 -8 66 -29 92 -46 l48 -31 35 -48 c47 -65 98 -170 124 -258 l22 -73 22 6 c12 4 63 19 112 35 50 15 182 56 295 90 113 33 212 64 222 68 l16 7 -25 85 -24 85 -44 94 -45 93 -47 67 c-94 133 -203 230 -338 302 l-70 37 -75 25 -75 25 -108 16 -108 16 -182 -1 c-100 -1 -195 -4 -212 -6z"></path><path id="pDd5HiNcq" d="M22680 1970 c0 -676 0 -1233 0 -1237 l0 -8 499 -3 500 -2 14 52 c9 29 72 276 142 548 70 272 144 560 165 640 21 80 43 169 51 198 l13 52 7 -7 c10 -10 48 -153 219 -823 78 -305 148 -579 156 -607 l15 -53 499 0 500 0 0 1240 0 1240 -310 0 -310 0 0 -925 0 -925 -7 0 -8 0 -31 123 c-242 942 -391 1522 -414 1612 l-28 110 -284 3 -283 2 -27 -112 c-15 -62 -46 -183 -68 -268 -39 -149 -115 -445 -275 -1070 -42 -162 -84 -320 -93 -350 l-17 -55 -3 928 -2 927 -310 0 -310 0 0 -1230z"></path><path id="p16MCp5WbI" d="M25952 1963 l3 -1238 1023 -3 1022 -2 0 265 0 265 -640 0 -640 0 2 198 3 197 588 2 c324 1 590 3 592 5 2 2 5 100 8 218 l6 215 -7 33 -7 32 -590 3 -590 2 -3 243 -2 242 660 0 660 0 0 280 0 280 -1045 0 -1045 0 2 -1237z"></path><path id="pqboczd9x" d="M28460 1960 l0 -1240 688 0 688 0 159 16 158 15 76 20 76 19 64 31 64 32 72 68 73 69 37 71 37 70 19 66 19 66 6 86 7 86 -12 89 -12 88 -23 63 -23 63 -45 63 -46 64 -54 52 c-30 28 -79 67 -109 86 l-54 34 -102 34 -103 34 0 8 c0 4 5 7 11 7 6 0 45 16 87 35 l77 36 34 32 c35 34 131 150 167 203 22 32 99 179 288 547 l117 227 -433 0 -433 0 -36 -68 c-49 -92 -304 -564 -370 -686 l-54 -99 -45 -50 -45 -50 -50 -23 -51 -22 -56 -7 -56 -7 -18 6 -19 6 0 497 0 498 -387 3 -388 2 0 -1240z m1266 -260 l74 -17 39 -26 39 -26 27 -56 28 -56 -5 -69 -5 -69 -27 -45 -27 -46 -41 -21 -42 -21 -75 -14 -76 -13 -196 -1 -197 0 -4 13 c-2 6 -3 118 -3 247 l0 235 125 6 c69 3 163 4 208 1 l84 -4 74 -18z"></path><path id="p4LtCvNjG" d="M33782 1963 l3 -1238 380 0 380 0 5 430 5 430 425 0 425 0 3 -433 2 -432 383 2 382 3 2 1238 3 1237 -388 0 -387 0 0 -497 0 -498 -427 -3 -428 -2 0 500 0 500 -385 0 -385 0 2 -1237z"></path><path id="pdsjY1B8x" d="M36440 3196 c0 -4 149 -402 480 -1281 139 -369 261 -692 271 -720 10 -27 54 -144 97 -260 l79 -210 419 0 418 0 32 85 c17 47 226 601 463 1232 237 631 431 1150 431 1153 l0 5 -399 0 -399 0 -6 -27 c-4 -16 -30 -104 -58 -198 l-50 -170 -12 -7 -11 -8 -421 0 -422 0 -9 13 c-6 6 -31 84 -57 172 -26 88 -52 175 -57 193 l-11 32 -389 0 c-214 0 -389 -2 -389 -4z m1603 -943 l5 -8 -129 -418 c-71 -230 -133 -425 -138 -434 l-9 -17 -10 35 c-14 50 -199 661 -228 752 -13 43 -24 82 -24 88 l0 9 264 0 265 0 4 -7z"></path><path id="p11GavXos1" d="M39390 1960 l0 -1240 356 2 356 3 86 125 c46 69 126 185 176 258 50 73 145 213 211 310 66 97 167 245 223 327 57 83 131 191 165 242 l62 91 8 -5 7 -4 0 -675 0 -674 360 0 360 0 0 1240 0 1240 -362 0 -363 -1 -123 -182 c-127 -187 -251 -369 -396 -581 -45 -67 -122 -179 -171 -251 -180 -264 -198 -290 -216 -310 l-19 -19 0 672 0 672 -360 0 -360 0 0 -1240z"></path><path id="puXexQmKl" d="M42878 2268 l-3 -933 -384 -1 -385 -2 -6 -18 -6 -19 2 -270 c1 -148 2 -278 3 -287 l1 -18 1160 0 1160 0 -2 305 -3 305 -385 2 -385 3 -3 933 -2 932 -380 0 -380 0 -2 -932z"></path></g></g></svg> 