<svg class="img-fluid" id="outputsvg" xmlns="http://www.w3.org/2000/svg" style="" width="512" height="512" viewBox="0 0 5120 5120">
	<g id="l7KITrnyaNezBZQV63k0Wm2" fill="#22b066" style="transform: none;">
		<g>
			<path id="peBZh9VOZ" d="M578 4630 c-209 -25 -383 -205 -408 -422 -13 -111 -13 -3185 0 -3296 26 -225 197 -396 422 -422 111 -13 3825 -13 3936 0 225 26 396 197 422 422 13 111 13 3185 0 3296 -26 225 -197 396 -422 422 -100 12 -3851 11 -3950 0z m3990 -330 c18 -11 41 -34 52 -52 19 -32 20 -52 20 -513 l0 -480 -480 -480 -480 -480 -292 292 -293 293 117 117 c63 65 121 128 127 140 27 54 2 147 -50 186 -30 21 -95 33 -136 23 -19 -5 -158 -137 -431 -409 l-402 -402 -333 333 -332 332 210 0 c120 0 227 5 250 11 136 37 157 212 35 283 -34 21 -48 21 -852 24 l-818 3 0 347 c0 329 1 349 20 380 11 18 34 41 52 52 33 20 55 20 2008 20 1953 0 1975 0 2008 -20z m-2832 -1611 c506 -505 512 -511 557 -516 25 -3 58 -2 74 1 18 5 112 91 271 249 l242 242 364 -364 c357 -357 364 -363 409 -368 25 -3 58 -2 74 1 19 5 170 149 471 449 l442 442 0 -960 c0 -940 0 -961 -20 -993 -11 -18 -34 -41 -52 -52 -33 -20 -55 -20 -2008 -20 -1953 0 -1975 0 -2008 20 -18 11 -41 34 -52 52 -20 32 -20 53 -20 1181 l0 1147 372 0 373 0 511 -511z">
			</path>
			<path id="phnlHwMY3" d="M1132 2051 c-127 -47 -222 -132 -280 -251 -37 -74 -37 -76 -37 -200 0 -124 0 -126 37 -200 49 -99 129 -179 228 -228 74 -37 76 -37 200 -37 124 0 126 0 200 37 100 49 179 128 228 227 37 75 37 77 37 201 0 124 0 126 -37 200 -49 100 -129 180 -228 228 -70 34 -82 37 -185 39 -90 3 -120 0 -163 -16z m236 -311 c48 -30 72 -75 72 -140 0 -100 -60 -160 -160 -160 -100 0 -160 60 -160 160 0 65 24 110 72 140 45 27 131 27 176 0z">
			</path>
		</g>
	</g>
</svg>
