<svg width="2000" height="2000" viewBox="0 0 2000 2000" fill="none" xmlns="http://www.w3.org/2000/svg">
<g id="Frame 1" clip-path="url(#clip0_1_2)">
<g id="undraw_feeling_blue_-4-b7q 1">
<path id="Vector" opacity="0.1" d="M23.3031 969.936C54.8276 1087.44 121.506 1189.01 226.878 1238.25C445.935 1340.58 939.964 1287.81 1308.68 1227.23C1499.4 1195.89 1667.04 1109.42 1788.82 987.738L23.3031 969.936Z" fill="#22B066"/>
<path id="Vector_2" opacity="0.1" d="M1956.81 416.831H1754.5C1744.9 416.831 1737.02 409.969 1737.02 401.585C1737.02 393.201 1744.9 386.322 1754.5 386.322H1789.49C1779.87 386.322 1772.01 379.46 1772.01 371.058C1772.01 362.656 1779.87 355.812 1789.49 355.812H1764.52C1754.9 355.812 1747.02 348.951 1747.02 340.549C1747.02 332.147 1754.9 325.303 1764.52 325.303H1870.11C1846.68 315.798 1819.29 309.042 1787.73 305.489C1499.8 273.229 1397.01 294.566 1360.74 316.499C1315.55 344.177 1265.34 363.382 1212.76 373.106C1035.12 405.086 702.904 443.559 401.797 360.853C252.142 319.667 140.908 389.175 74.2469 505.366H1991.94C1989.44 471.601 1981.94 440.409 1968.19 413.12C1964.93 415.546 1960.92 416.852 1956.81 416.831V416.831Z" fill="#22B066"/>
<path id="Vector_3" opacity="0.1" d="M6.15247 724.672C-1.61803 793.01 1.02339 862.077 13.9928 929.677L1790.18 986.373C1839.08 937.464 1880.62 882.186 1913.59 822.151L6.15247 724.672ZM708.657 870.917H673.684C683.303 870.917 691.18 877.796 691.18 886.18C691.18 894.565 683.303 901.426 673.684 901.426H471.379C461.779 901.426 453.902 894.565 453.902 886.18C453.902 877.796 461.779 870.917 471.379 870.917H506.37C496.751 870.917 488.893 864.055 488.893 855.671C488.893 847.287 496.751 840.408 506.37 840.408H481.379C471.76 840.408 463.884 833.546 463.884 825.162C463.884 816.777 471.76 809.898 481.379 809.898H683.684C693.303 809.898 701.162 816.76 701.162 825.162C701.162 833.564 693.303 840.408 683.684 840.408H708.657C718.276 840.408 726.134 847.269 726.134 855.671C726.134 864.073 718.276 870.917 708.657 870.917Z" fill="#22B066"/>
<path id="Vector_4" opacity="0.1" d="M1992.01 506.416L52.8494 547.55C29.256 600.464 13.6117 660.293 6.40659 722.291H1958.04C1970.74 686.018 1980.17 648.754 1986.21 610.914C1992.03 574.488 1994.36 539.253 1992.01 506.416ZM400.127 641.283H365.154C374.773 641.283 382.65 648.162 382.65 656.547C382.65 664.931 374.773 671.81 365.154 671.81H162.849C153.249 671.81 145.372 664.931 145.372 656.547C145.372 648.162 153.249 641.283 162.849 641.283H197.84C188.221 641.283 180.363 634.422 180.363 626.037C180.363 617.653 188.221 610.774 197.84 610.774H172.849C163.231 610.774 155.354 603.913 155.354 595.528C155.354 587.144 163.231 580.265 172.849 580.265H375.154C384.773 580.265 392.632 587.126 392.632 595.528C392.632 603.93 384.773 610.774 375.154 610.774H400.127C409.746 610.774 417.604 617.653 417.604 626.037C417.604 634.422 409.746 641.283 400.127 641.283Z" fill="#22B066"/>
<path id="Vector_5" opacity="0.1" d="M991.071 1656.19C1439.09 1656.19 1802.29 1623.97 1802.29 1584.22C1802.29 1544.47 1439.09 1512.24 991.071 1512.24C543.049 1512.24 179.855 1544.47 179.855 1584.22C179.855 1623.97 543.049 1656.19 991.071 1656.19Z" fill="#22B066"/>
<path id="Vector_6" d="M1817.86 989.716C1817.85 989.593 1817.85 989.47 1817.86 989.348C1817.86 989.156 1817.86 988.981 1817.86 988.805C1817.49 986.801 1816.71 984.889 1815.55 983.187C1811.4 976.776 1805.62 971.497 1798.75 967.853C1786.77 961.517 1770.31 958.804 1765.52 946.709C1764.05 942.963 1764.01 938.884 1763.28 934.963C1762.01 928.855 1759.1 923.175 1754.84 918.496C1750.57 913.817 1745.1 910.302 1738.98 908.305C1733.28 906.467 1727.13 905.96 1721.6 903.684C1709.22 898.608 1702.69 886.093 1697.15 874.523C1689.99 859.586 1682.83 844.643 1675.66 829.695C1670.22 832.338 1663.18 831.095 1658.08 827.787C1653.16 824.259 1649.25 819.593 1646.7 814.222C1639.31 800.394 1636.13 784.728 1627.46 771.565C1618.78 758.402 1601.45 748.004 1586.13 753.728C1583.14 755.169 1580.05 756.404 1576.88 757.422C1563.76 760.38 1549.24 745.922 1538 752.941C1536.14 754.095 1534.62 755.7 1533.59 757.597C1533.58 757.48 1533.58 757.363 1533.59 757.247C1532.13 760.094 1531.32 763.208 1531.2 766.384V766.384C1531.2 767.031 1531.2 767.661 1531.2 768.274C1531.2 768.379 1531.2 768.484 1531.2 768.589C1531.2 771.11 1531.36 773.665 1531.4 776.221C1531.44 778.367 1531.27 780.512 1530.89 782.627V782.452C1530.68 783.643 1530.36 784.814 1529.95 785.953C1527.02 793.515 1518.93 798.468 1515.14 805.575V805.225C1514.71 805.998 1514.34 806.799 1514.03 807.623C1513.35 809.486 1513.01 811.443 1512.99 813.417C1512.67 826.772 1527.35 839.34 1529.06 853.675C1530.27 863.828 1532.69 867.083 1541.63 872.825L1543.59 874.085C1542.81 874.085 1542.01 874.19 1541.13 874.208C1540.78 874.214 1540.43 874.249 1540.09 874.313C1538.51 873.893 1536.86 873.817 1535.24 874.09C1533.63 874.362 1532.1 874.976 1530.76 875.888C1523.9 881.139 1507.68 877.096 1500.47 875.888C1493.27 874.68 1468.58 877.936 1465.14 891.134C1461.69 904.332 1455.77 931.568 1455.77 931.568C1455.77 931.568 1455.77 948.844 1453.58 952.065C1453.49 952.291 1453.49 952.539 1453.58 952.765C1453.58 957.614 1453.76 986.758 1448.89 994.267C1447.7 996.017 1447.79 999.885 1448.68 1004.65C1443.56 1011 1438.75 1018.42 1439.6 1023.29C1441.16 1033.25 1462.11 1064.56 1492.12 1047.79C1492.12 1047.79 1509.2 1017.67 1487.71 1001.65L1488.64 998.153C1495.14 1005.85 1499.95 1011.39 1499.95 1011.39C1499.95 1011.39 1500.2 1012.03 1500.6 1013.14H1499.95C1502.75 1020.5 1504.45 1028.21 1504.99 1036.03C1504.91 1038.9 1504.37 1041.74 1503.39 1044.45H1503.96C1503.79 1045.05 1503.61 1045.64 1503.39 1046.2C1502.34 1049.16 1500.37 1051.73 1497.75 1053.57C1482.74 1063.83 1465.55 1137.08 1465.55 1137.08C1465.55 1137.08 1431.51 1255.49 1424.7 1262.23C1419.07 1267.76 1454.43 1283.34 1480.96 1281.49C1484.67 1281.28 1488.33 1280.6 1491.85 1279.49C1492.01 1281.24 1492.2 1282.99 1492.38 1284.59C1492.94 1289.84 1493.52 1294.7 1493.88 1296.23C1494.83 1300.04 1496.7 1339.01 1496.7 1339.01C1496.7 1339.01 1492.87 1364.32 1493.79 1381.93C1493.79 1383.13 1493.96 1384.29 1494.07 1385.43L1490.76 1385.92C1485.75 1396.77 1506.39 1487.32 1509.2 1494.93C1511.06 1500.93 1512.11 1507.14 1512.32 1513.4C1512.32 1513.4 1510.51 1519.84 1512.01 1523.36C1512.95 1525.51 1513.56 1527.78 1513.83 1530.1C1513.83 1530.1 1512.6 1535.94 1514.46 1539.76C1516.33 1543.57 1514.16 1550.26 1514.16 1550.26C1514.16 1550.26 1513.54 1576.64 1507.91 1590.99C1506.38 1594.85 1505.93 1599.04 1506.62 1603.12C1507.31 1607.2 1509.1 1611.04 1511.81 1614.24C1512.21 1614.74 1512.63 1615.21 1513.09 1615.65C1513.09 1615.65 1544.12 1615.9 1549.58 1615.65H1550.29C1552.49 1615.36 1558.11 1591.62 1553.1 1580.19C1548.09 1568.76 1552.49 1554.69 1552.49 1554.69V1533.89C1552.49 1533.89 1558.11 1528.89 1552.49 1518.14C1546.86 1507.39 1547.79 1504.14 1547.79 1504.14C1547.79 1504.14 1554.05 1486.84 1547.48 1481.28C1540.91 1475.71 1548.73 1454.6 1548.73 1454.6L1550.94 1384.24C1549.78 1383.87 1548.6 1383.58 1547.4 1383.36C1547.28 1382.21 1547.15 1381.02 1547.02 1379.75C1545.74 1367.01 1544.63 1349.68 1547.5 1344.75C1550.36 1339.81 1551.74 1296.72 1552.2 1266.77L1580.8 1267.82C1581.4 1281.82 1582.03 1294.6 1582.43 1296.23C1583.38 1300.04 1585.26 1339.01 1585.26 1339.01C1585.26 1339.01 1581.42 1364.32 1582.34 1381.93C1582.34 1383.13 1582.5 1384.29 1582.61 1385.43L1579.31 1385.92C1574.3 1396.77 1594.94 1487.32 1597.75 1494.93C1599.61 1500.93 1600.67 1507.14 1600.89 1513.4C1600.89 1513.4 1599.07 1519.84 1600.56 1523.36C1601.5 1525.51 1602.11 1527.78 1602.38 1530.1C1602.38 1530.1 1601.14 1535.94 1603.01 1539.76C1604.88 1543.57 1602.7 1550.26 1602.7 1550.26C1602.7 1550.26 1602.09 1576.64 1596.46 1590.99C1594.95 1594.86 1594.53 1599.04 1595.24 1603.12C1595.95 1607.2 1597.76 1611.02 1600.49 1614.2C1600.88 1614.7 1601.31 1615.17 1601.76 1615.62C1601.76 1615.62 1632.79 1615.86 1638.26 1615.62H1638.97C1641.16 1615.32 1646.79 1591.59 1641.78 1580.16C1636.77 1568.73 1641.16 1554.65 1641.16 1554.65V1533.89C1641.16 1533.89 1646.79 1528.89 1641.16 1518.14C1635.54 1507.39 1636.46 1504.14 1636.46 1504.14C1636.46 1504.14 1642.72 1486.84 1636.15 1481.28C1629.58 1475.71 1637.4 1454.6 1637.4 1454.6L1639.66 1384.24C1638.47 1383.87 1637.25 1383.57 1636.03 1383.36C1635.9 1382.21 1635.77 1381.02 1635.64 1379.75C1634.36 1367.01 1633.25 1349.68 1636.12 1344.75C1638.42 1340.7 1639.75 1314.66 1640.34 1289.22C1640.34 1287.47 1640.34 1285.72 1640.49 1283.97C1653.63 1283.45 1666.72 1282.03 1679.66 1279.74C1679.66 1279.74 1664.36 1227.56 1669.04 1219.07C1671.05 1215.41 1668.15 1195.93 1664.17 1174.94C1669.72 1179.27 1676.61 1181.67 1683.74 1181.77C1690.58 1194.46 1711.4 1223.66 1723.12 1228.15C1736.88 1233.4 1726.55 1186.84 1720 1180.11C1716.9 1176.43 1714.29 1172.39 1712.23 1168.08C1712.41 1167.87 1712.61 1167.7 1712.79 1167.5C1712.98 1167.31 1713.12 1117.97 1709.98 1118.86C1706.84 1119.75 1703.1 1111.53 1703.1 1111.53L1693.41 1029.48L1689.35 995.142C1692.74 997.557 1696.77 999.098 1700.24 1001.5C1709.67 1008.16 1712.76 1019.87 1716.9 1030.24C1720.31 1038.76 1725.1 1047.22 1732.96 1052.57C1740.82 1057.93 1752.34 1059.35 1760.18 1053.92C1767.44 1048.83 1769.58 1039.64 1771.18 1031.25C1784.36 1035.72 1800.34 1023.78 1798.64 1010.74C1798.22 1007.52 1796.99 1004 1798.73 1001.18C1802.21 995.615 1813.25 998.853 1816.88 993.356C1817.49 992.406 1817.8 991.306 1817.79 990.188C1817.84 989.943 1817.86 989.838 1817.86 989.716ZM1641.62 1034.84C1641.42 1037.97 1645.88 1063.14 1649.51 1083.06C1646.53 1070.65 1640.56 1057.4 1628.8 1048.32C1628.8 1048.32 1628.8 1047.69 1628.66 1046.57H1628.8C1628.8 1046.57 1628.31 1041.56 1628.24 1034.44C1628.26 1028.12 1628.75 1021.82 1629.69 1015.57V1015.41H1629.46C1629.46 1014.89 1629.6 1014.34 1629.69 1013.82C1630.41 1008.55 1631.9 1003.4 1634.1 998.52C1635.08 996.609 1636.2 994.772 1637.46 993.024C1639.4 1009.95 1641.8 1031.67 1641.62 1034.84V1034.84ZM1651.38 1093.16C1652.98 1101.76 1654.12 1107.8 1654.12 1107.8L1663.76 1171.62V1171.91C1658.57 1144.98 1651.94 1116.58 1651.94 1116.58C1652.62 1108.78 1652.43 1100.93 1651.38 1093.16V1093.16Z" fill="url(#paint0_linear_1_2)"/>
<path id="Vector_7" d="M1533.27 857.176C1531.45 841.003 1513.3 827.052 1518.75 811.666C1521.71 803.282 1530.96 798.153 1534.08 789.821C1536.15 784.325 1535.23 778.286 1535.25 772.44C1535.26 766.594 1536.68 760.065 1541.72 756.826C1552.61 749.825 1566.62 764.231 1579.33 761.29C1582.4 760.277 1585.39 759.048 1588.28 757.614C1603.1 751.925 1619.87 762.288 1628.2 775.381C1636.53 788.473 1639.66 804.087 1646.81 817.845C1649.25 823.158 1653.03 827.797 1657.8 831.341C1662.74 834.631 1669.49 835.874 1674.83 833.248L1695.61 877.883C1701.05 889.383 1707.3 901.846 1719.2 906.905C1724.54 909.163 1730.49 909.67 1736.01 911.508C1742 913.548 1747.34 917.071 1751.48 921.725C1755.62 926.379 1758.42 932.001 1759.6 938.027C1760.31 941.948 1760.33 946.008 1761.76 949.737C1766.39 961.779 1782.31 964.475 1793.9 970.741C1800.61 974.39 1806.24 979.64 1810.24 985.987C1812.05 989.016 1813.61 992.989 1811.67 995.965C1808.17 1001.43 1797.51 998.205 1794.14 1003.75C1792.43 1006.55 1793.63 1010.06 1794.14 1013.28C1795.79 1026.25 1780.31 1038.13 1767.57 1033.69C1766.03 1042.03 1763.94 1051.19 1756.93 1056.25C1749.4 1061.67 1738.24 1060.24 1730.64 1054.92C1723.03 1049.6 1718.42 1041.18 1715.12 1032.69C1711.11 1022.36 1708.11 1010.7 1698.98 1004.07C1695.68 1001.69 1691.72 1000.15 1688.49 997.75C1681.23 992.394 1677.6 983.554 1675.01 974.995C1671.65 964.318 1668.98 953.343 1664.12 943.26C1659.26 933.178 1651.56 923.796 1641.02 919.193C1631.13 914.904 1619.73 915.184 1609.51 911.701C1591.92 905.715 1578.91 891.449 1561.42 884.727C1555.82 882.46 1550.52 879.57 1545.63 876.115C1536.82 870.532 1534.43 867.294 1533.27 857.176Z" fill="#3F3D56"/>
<g id="Group" opacity="0.1">
<path id="Vector_8" opacity="0.1" d="M1534.9 786.39C1535.27 785.706 1535.6 784.998 1535.88 784.272C1537.93 778.776 1537.02 772.737 1537.04 766.891C1537.04 764.941 1537.23 762.996 1537.6 761.08C1535.93 764.538 1535.12 768.327 1535.23 772.142C1535.21 776.851 1535.79 781.787 1534.9 786.39Z" fill="black"/>
<path id="Vector_9" opacity="0.1" d="M1758.64 1050.75C1751.11 1056.16 1739.95 1054.74 1732.34 1049.4C1724.74 1044.07 1720.11 1035.68 1716.9 1027.16C1712.89 1016.83 1709.91 1005.17 1700.76 998.538C1697.48 996.157 1693.5 994.599 1690.29 992.219C1683.03 986.863 1679.4 978.023 1676.79 969.551C1673.43 958.874 1670.78 947.899 1665.9 937.817C1661.02 927.734 1653.36 918.352 1642.79 913.749C1632.92 909.46 1621.52 909.74 1611.31 906.257C1593.7 900.271 1580.69 886.005 1563.21 879.284C1557.62 877.01 1552.31 874.12 1547.4 870.672C1538.8 864.948 1536.52 861.71 1535.24 851.61C1533.43 836.452 1517.46 823.236 1519.95 808.953C1519.54 809.726 1519.18 810.521 1518.87 811.334C1513.43 826.737 1531.58 840.688 1533.39 856.844C1534.57 866.943 1537.02 870.182 1545.55 875.905C1550.46 879.353 1555.77 882.243 1561.36 884.517C1578.84 891.239 1591.85 905.522 1609.46 911.491C1619.67 914.992 1631.07 914.694 1640.94 918.982C1651.51 923.586 1659.09 932.986 1664.05 943.05C1669 953.115 1671.65 964.055 1674.94 974.785C1677.6 983.257 1681.11 992.096 1688.44 997.452C1691.72 999.833 1695.7 1001.39 1698.91 1003.77C1707.99 1010.41 1711.03 1022.06 1715.05 1032.39C1718.35 1040.88 1722.98 1049.28 1730.58 1054.6C1738.19 1059.92 1749.35 1061.36 1756.88 1055.95C1761.69 1052.45 1764.14 1047.11 1765.75 1041.39C1764.32 1045.08 1761.86 1048.32 1758.64 1050.75V1050.75Z" fill="black"/>
<path id="Vector_10" opacity="0.1" d="M1795.93 998.257C1795.24 999.513 1794.94 1000.94 1795.06 1002.35C1799.17 998.45 1808.42 1000.74 1811.65 995.719C1812.4 994.478 1812.7 993.029 1812.49 991.606C1808.28 995.457 1799.02 993.164 1795.93 998.257Z" fill="black"/>
<path id="Vector_11" opacity="0.1" d="M1769.27 1028.19C1768.93 1029.94 1768.58 1031.81 1768.15 1033.63C1779.26 1036.98 1792.09 1028.38 1793.9 1017.53C1789.49 1025.88 1778.6 1031.46 1769.27 1028.19Z" fill="black"/>
</g>
<path id="Vector_12" d="M1556.72 865.596C1556.72 865.596 1562.76 877.358 1544.92 877.603C1527.08 877.848 1556.41 953.99 1556.41 953.99L1586.06 990.398L1622.96 971.144L1625.08 918.037L1627.8 885.953C1627.8 885.953 1593.32 875.153 1599.67 860.87C1606.03 846.586 1556.72 865.596 1556.72 865.596Z" fill="#FBBEBE"/>
<path id="Vector_13" d="M1663.81 1176.04C1663.81 1176.04 1685.59 1196.72 1711 1169.29L1691.49 1149.32H1666.81L1663.81 1176.04Z" fill="#575A89"/>
<path id="Vector_14" opacity="0.1" d="M1666.17 1149.32L1663.18 1176.04C1663.18 1176.04 1684.95 1196.72 1710.36 1169.29" fill="black"/>
<path id="Vector_15" d="M1702.81 1152.96C1702.81 1152.96 1711.58 1175.13 1717.93 1181.84C1724.28 1188.54 1734.27 1234.93 1720.96 1229.68C1707.66 1224.43 1682.25 1185.34 1680.73 1178.64C1679.2 1171.93 1678.62 1152.96 1678.62 1152.96H1702.81Z" fill="#FBBEBE"/>
<path id="Vector_16" d="M1512.56 1266.73L1629.91 1271.11L1616.3 1223.25L1557.19 1222.1L1512.56 1266.73Z" fill="#575A89"/>
<path id="Vector_17" opacity="0.1" d="M1528.87 1266.73L1646.24 1271.11L1632.63 1223.25L1573.5 1222.1L1528.87 1266.73Z" fill="black"/>
<path id="Vector_18" d="M1550.96 1345.73C1548.19 1350.72 1549.26 1367.97 1550.51 1380.74C1551.31 1388.86 1552.18 1395.11 1552.18 1395.11C1552.18 1395.11 1508.31 1408.23 1501.67 1396.86C1499.98 1393.97 1499.15 1388.91 1498.86 1382.98C1497.95 1365.47 1501.67 1340.25 1501.67 1340.25C1501.67 1340.25 1499.85 1301.46 1498.95 1297.66C1498.58 1296.14 1498.02 1291.31 1497.48 1286.07C1496.68 1278.3 1495.92 1269.66 1495.92 1269.66L1555.81 1239.02C1555.81 1239.02 1555.81 1244.76 1555.7 1253.6C1555.37 1281.37 1554.41 1339.6 1550.96 1345.73Z" fill="#FBBEBE"/>
<path id="Vector_19" opacity="0.1" d="M1552.18 1395.11C1552.18 1395.11 1508.31 1408.23 1501.67 1396.86C1499.98 1393.97 1499.15 1388.91 1498.86 1382.98C1507.93 1381.65 1535.55 1377.97 1550.51 1380.74C1551.31 1388.86 1552.18 1395.11 1552.18 1395.11Z" fill="black"/>
<path id="Vector_20" d="M1553.68 1615.65H1552.99C1547.71 1615.85 1517.7 1615.65 1517.7 1615.65C1517.26 1615.21 1516.84 1614.74 1516.46 1614.25C1513.81 1611.05 1512.06 1607.24 1511.37 1603.19C1510.69 1599.15 1511.1 1595 1512.56 1591.15C1518 1576.85 1518.6 1550.59 1518.6 1550.59C1518.6 1550.59 1520.73 1543.89 1518.91 1540.09C1517.1 1536.29 1518.29 1530.46 1518.29 1530.46C1518.02 1528.16 1517.4 1525.9 1516.48 1523.76C1514.97 1520.26 1516.79 1513.83 1516.79 1513.83C1516.58 1507.61 1515.56 1501.44 1513.76 1495.46C1511.03 1487.88 1491.07 1397.73 1495.92 1386.93C1495.92 1386.93 1538.26 1379.93 1554.3 1385.18L1552.18 1455.2C1552.18 1455.2 1544.61 1476.2 1550.96 1481.75C1557.31 1487.3 1551.27 1504.51 1551.27 1504.51C1551.27 1504.51 1550.36 1507.71 1555.81 1518.51C1561.25 1529.31 1555.81 1534.26 1555.81 1534.26V1554.97C1555.81 1554.97 1551.58 1568.97 1556.41 1580.35C1561.23 1591.73 1555.81 1615.29 1553.68 1615.65Z" fill="#3F3D56"/>
<path id="Vector_21" d="M1636.79 1345.73C1634.01 1350.72 1635.08 1367.97 1636.33 1380.74C1637.13 1388.86 1638 1395.11 1638 1395.11C1638 1395.11 1594.14 1408.23 1587.5 1396.86C1585.81 1393.97 1584.97 1388.91 1584.68 1382.98C1583.77 1365.47 1587.5 1340.25 1587.5 1340.25C1587.5 1340.25 1585.68 1301.46 1584.77 1297.66C1584.28 1295.61 1583.43 1276.08 1582.76 1258.56C1582.2 1243.61 1581.74 1230.1 1581.74 1230.1L1641.63 1239.02C1641.63 1239.02 1641.63 1264.42 1640.89 1290.52C1640.24 1315.83 1639.02 1341.77 1636.79 1345.73Z" fill="#FBBEBE"/>
<path id="Vector_22" opacity="0.1" d="M1638 1395.11C1638 1395.11 1594.14 1408.23 1587.5 1396.86C1585.81 1393.97 1584.97 1388.91 1584.68 1382.98C1593.76 1381.65 1621.38 1377.97 1636.33 1380.74C1637.13 1388.86 1638 1395.11 1638 1395.11Z" fill="black"/>
<path id="Vector_23" d="M1639.51 1615.65H1638.82C1633.54 1615.85 1603.52 1615.65 1603.52 1615.65C1603.08 1615.21 1602.67 1614.74 1602.29 1614.25C1599.63 1611.05 1597.88 1607.24 1597.2 1603.19C1596.51 1599.15 1596.92 1595 1598.38 1591.15C1603.83 1576.78 1604.37 1550.52 1604.37 1550.52C1604.37 1550.52 1606.5 1543.82 1604.68 1540.02C1602.87 1536.22 1604.07 1530.39 1604.07 1530.39C1603.79 1528.09 1603.18 1525.83 1602.25 1523.69C1600.74 1520.19 1602.56 1513.76 1602.56 1513.76C1602.35 1507.54 1601.33 1501.36 1599.53 1495.39C1596.81 1487.81 1576.84 1397.66 1581.69 1386.86C1581.69 1386.86 1624.03 1379.86 1640.07 1385.11L1637.95 1455.13C1637.95 1455.13 1630.38 1476.13 1636.73 1481.68C1643.09 1487.23 1637.04 1504.43 1637.04 1504.43C1637.04 1504.43 1636.13 1507.64 1641.58 1518.44C1647.02 1529.24 1641.58 1534.19 1641.58 1534.19V1554.9C1641.58 1554.9 1637.35 1568.9 1642.18 1580.28C1647.01 1591.66 1641.63 1615.29 1639.51 1615.65Z" fill="#3F3D56"/>
<path id="Vector_24" opacity="0.1" d="M1580.31 879.354C1603.86 879.354 1622.96 860.937 1622.96 838.22C1622.96 815.502 1603.86 797.085 1580.31 797.085C1556.75 797.085 1537.66 815.502 1537.66 838.22C1537.66 860.937 1556.75 879.354 1580.31 879.354Z" fill="black"/>
<path id="Vector_25" d="M1580.31 877.603C1603.86 877.603 1622.96 859.187 1622.96 836.469C1622.96 813.751 1603.86 795.335 1580.31 795.335C1556.75 795.335 1537.66 813.751 1537.66 836.469C1537.66 859.187 1556.75 877.603 1580.31 877.603Z" fill="#FBBEBE"/>
<path id="Vector_26" opacity="0.1" d="M1495.92 1269.66L1555.81 1239.02C1555.81 1239.02 1555.81 1244.76 1555.7 1253.6C1546.95 1258.65 1533.76 1266.22 1521.07 1273.38C1514.17 1277.29 1507.44 1281.07 1501.67 1284.24C1500.33 1284.94 1498.93 1285.52 1497.48 1285.99C1496.68 1278.3 1495.92 1269.66 1495.92 1269.66Z" fill="black"/>
<path id="Vector_27" opacity="0.1" d="M1641.63 1238.95C1641.63 1238.95 1641.63 1264.35 1640.89 1290.45H1640.67C1636.2 1290.6 1631.72 1290.47 1627.26 1290.05C1619.44 1289.24 1613.18 1287.25 1610.93 1283.29C1606.37 1275.59 1593.61 1265.79 1582.83 1258.49C1582.27 1243.54 1581.81 1230.03 1581.81 1230.03L1641.63 1238.95Z" fill="black"/>
<path id="Vector_28" d="M1630.49 1016.5C1628.97 1027.89 1628.68 1039.41 1629.62 1050.86C1657.13 1072.74 1652 1118.82 1652 1118.82C1652 1118.82 1673.18 1212.19 1668.64 1220.64C1664.1 1229.1 1678.91 1281.03 1678.91 1281.03C1666.29 1283.34 1653.51 1284.76 1640.67 1285.27C1636.2 1285.42 1631.72 1285.29 1627.26 1284.87C1619.44 1284.06 1613.18 1282.07 1610.93 1278.11C1602.47 1263.83 1565.86 1242.52 1565.86 1242.52C1565.86 1242.52 1542.67 1255.93 1521.07 1268.13C1514.17 1272.04 1507.44 1275.82 1501.67 1278.98C1496.99 1281.38 1491.81 1282.75 1486.52 1282.99C1460.83 1284.83 1426.62 1269.32 1432.07 1263.83C1438.73 1257.11 1471.71 1139.25 1471.71 1139.25C1471.71 1139.25 1488.33 1066.31 1502.85 1056.11C1505.39 1054.25 1507.29 1051.7 1508.29 1048.77C1513.27 1035.45 1504.95 1014.1 1504.95 1014.1C1504.95 1014.1 1458.08 958.384 1460.18 955.163C1462.29 951.942 1462.3 934.753 1462.3 934.753C1462.3 934.753 1468.06 907.622 1471.38 894.494C1474.7 881.367 1498.6 878.146 1505.55 879.319C1512.5 880.491 1528.22 884.57 1534.86 879.319C1541.51 874.067 1552.72 881.367 1552.72 881.367L1580.27 888.683L1605.05 874.68C1605.05 874.68 1629.87 875.905 1632 879.109C1634.12 882.312 1666.79 888.456 1666.79 888.456C1683.41 899.238 1682.81 950.594 1682.81 950.594C1682.81 950.594 1642.89 984.132 1634.72 1001.36C1632.6 1006.19 1631.18 1011.29 1630.49 1016.5V1016.5Z" fill="#575A89"/>
<path id="Vector_29" d="M1673.78 943.488L1682.85 950.49L1692.23 1031.88L1701.6 1113.57C1701.6 1113.57 1705.23 1121.75 1708.26 1120.87C1711.29 1120 1710.98 1169.29 1710.98 1169.29C1710.98 1169.29 1676.24 1148.69 1663.79 1176.04L1654.1 1110.07C1654.1 1110.07 1641.69 1042.68 1642 1037.43C1642.31 1032.18 1635.64 975.293 1635.64 975.293L1673.78 943.488Z" fill="#575A89"/>
<path id="Vector_30" d="M1466.88 947.286L1460.22 955.163C1460.22 955.163 1460.84 988.998 1455.68 997.172C1450.53 1005.35 1469.91 1053.18 1477.17 1050.26C1484.43 1047.34 1500.76 972.667 1500.76 971.792C1500.76 970.916 1466.88 947.286 1466.88 947.286Z" fill="#575A89"/>
<path id="Vector_31" d="M1466.28 995.422C1466.28 995.422 1445.1 1016.13 1446.61 1026.05C1448.11 1035.98 1468.38 1067.15 1497.42 1050.4C1497.42 1050.4 1524.36 1001.55 1466.28 995.422Z" fill="#575A89"/>
<path id="Vector_32" opacity="0.1" d="M1552.99 1615.71C1547.71 1615.9 1517.7 1615.71 1517.7 1615.71C1517.26 1615.26 1516.84 1614.8 1516.46 1614.31C1524.14 1611.79 1540.73 1608.01 1552.99 1615.71Z" fill="black"/>
<path id="Vector_33" opacity="0.1" d="M1638.86 1615.71C1633.58 1615.9 1603.56 1615.71 1603.56 1615.71C1603.12 1615.26 1602.71 1614.8 1602.32 1614.31C1609.96 1611.79 1626.55 1608.01 1638.86 1615.71Z" fill="black"/>
<path id="Vector_34" opacity="0.1" d="M1523.21 1102.62C1518.58 1145.43 1520.11 1230.39 1521.07 1268.13C1514.17 1272.04 1507.44 1275.82 1501.67 1278.98C1496.99 1281.38 1491.81 1282.75 1486.52 1282.99C1484.59 1271.58 1511.23 1154.36 1523.21 1102.62Z" fill="black"/>
<path id="Vector_35" opacity="0.1" d="M1528.87 1078.32C1528.75 1078.93 1526.55 1088.25 1523.21 1102.62C1524.52 1090.35 1526.33 1081.54 1528.87 1078.32Z" fill="black"/>
<path id="Vector_36" opacity="0.1" d="M1602.56 1073.7C1602.56 1073.7 1628.28 1229.48 1552.12 1248.74C1552.11 1248.67 1604.81 1240.95 1602.56 1073.7Z" fill="black"/>
<path id="Vector_37" opacity="0.1" d="M1640.67 1285.27C1636.2 1285.42 1631.72 1285.29 1627.26 1284.87L1606.72 1071.86C1619.82 1080.12 1635.5 1231.29 1640.67 1285.27Z" fill="black"/>
<path id="Vector_38" opacity="0.1" d="M1548.55 812.279C1549.91 812.174 1551.28 812.311 1552.6 812.681C1554.52 813.607 1556.26 814.865 1557.71 816.392C1560.08 818.3 1562.91 819.597 1565.94 820.164C1568.97 820.73 1572.09 820.546 1575.03 819.63C1577.1 818.738 1579.29 818.148 1581.54 817.88C1585.01 817.88 1588 820.33 1589.8 823.131C1591.6 825.932 1592.52 829.257 1594.07 832.251C1595.61 835.244 1598.08 838.079 1601.47 838.815C1603.1 838.876 1604.7 839.232 1606.19 839.865C1607.1 840.581 1607.8 841.517 1608.22 842.578C1611.05 848.477 1613.3 855.443 1619.35 858.331C1621.57 859.325 1623.99 859.833 1626.44 859.819C1628.93 859.996 1631.43 859.562 1633.7 858.559C1635.94 857.356 1637.78 855.581 1639.04 853.43C1642.81 847.409 1643.25 839.952 1642.36 832.968C1641.25 824.158 1638 815.725 1632.87 808.358C1627.46 800.907 1620.1 794.973 1611.54 791.163C1602.98 787.353 1593.52 785.802 1584.14 786.67C1580.86 787.026 1577.62 787.611 1574.43 788.421C1562.89 791.396 1551.56 796.963 1544.56 806.292C1542.86 808.621 1541 810.832 1538.98 812.909C1542.16 812.611 1545.35 812.349 1548.55 812.279Z" fill="black"/>
<path id="Vector_39" d="M1548.55 810.528C1549.91 810.424 1551.28 810.56 1552.6 810.931C1554.52 811.857 1556.26 813.114 1557.71 814.642C1560.08 816.549 1562.91 817.847 1565.94 818.413C1568.97 818.98 1572.09 818.796 1575.03 817.88C1577.1 816.988 1579.29 816.398 1581.54 816.13C1585.01 816.13 1588 818.58 1589.8 821.381C1591.6 824.181 1592.52 827.507 1594.07 830.5C1595.61 833.493 1598.08 836.329 1601.47 837.064C1603.1 837.125 1604.7 837.482 1606.19 838.115C1607.1 838.83 1607.8 839.766 1608.22 840.828C1611.05 846.726 1613.3 853.693 1619.35 856.581C1621.57 857.575 1623.99 858.083 1626.44 858.069C1628.93 858.245 1631.43 857.812 1633.7 856.809C1635.94 855.605 1637.78 853.831 1639.04 851.68C1642.81 845.659 1643.25 838.202 1642.36 831.218C1641.25 822.408 1638 813.975 1632.87 806.608C1627.46 799.156 1620.1 793.223 1611.54 789.413C1602.98 785.602 1593.52 784.052 1584.14 784.92C1580.86 785.276 1577.62 785.861 1574.43 786.671C1562.89 789.646 1551.56 795.213 1544.56 804.542C1542.86 806.871 1541 809.082 1538.98 811.159C1542.16 810.861 1545.35 810.598 1548.55 810.528Z" fill="#3F3D56"/>
<path id="Vector_40" opacity="0.1" d="M1502.27 908.48C1502.27 908.48 1504.39 924.829 1497.13 928.907C1489.87 932.986 1502.27 908.48 1502.27 908.48Z" fill="black"/>
<path id="Vector_41" opacity="0.1" d="M1656.23 1035.1C1656.23 1035.1 1673.47 1010.6 1675.9 1017.6C1678.33 1024.6 1656.23 1035.1 1656.23 1035.1Z" fill="black"/>
<path id="Vector_42" opacity="0.1" d="M1657.44 1043.26C1657.44 1043.26 1674.45 1023.13 1676.08 1031.01C1677.71 1038.88 1657.44 1043.26 1657.44 1043.26Z" fill="black"/>
<path id="Vector_43" opacity="0.1" d="M1607.5 1019.3C1601.33 1019.38 1595.31 1017.47 1590.4 1013.87H1588.91C1583.82 1018.36 1577.13 1020.78 1570.24 1020.65C1566.65 1020.73 1563.09 1020.1 1559.76 1018.81C1556.43 1017.53 1553.41 1015.6 1550.87 1013.15H1548.89C1543.67 1017.26 1537.1 1019.44 1530.37 1019.33C1523.63 1019.21 1517.15 1016.79 1512.09 1012.51L1504.99 1012.38C1504.99 1012.38 1513.3 1033.74 1508.33 1047.06L1629.62 1049.14C1628.68 1037.69 1628.97 1026.18 1630.49 1014.78V1014.62L1623.83 1014.5C1619.04 1017.71 1613.33 1019.38 1607.5 1019.3Z" fill="black"/>
<path id="Vector_44" opacity="0.1" d="M1607.5 1022.8C1601.33 1022.88 1595.31 1020.97 1590.4 1017.37H1588.91C1583.82 1021.86 1577.13 1024.28 1570.24 1024.15C1566.65 1024.23 1563.09 1023.6 1559.76 1022.32C1556.43 1021.03 1553.41 1019.1 1550.87 1016.65H1548.89C1543.67 1020.76 1537.1 1022.95 1530.37 1022.83C1523.63 1022.71 1517.15 1020.29 1512.09 1016.01L1504.99 1015.88C1504.99 1015.88 1513.3 1037.24 1508.33 1050.56L1629.62 1052.64C1628.68 1041.19 1628.97 1029.68 1630.49 1018.28V1018.12L1623.83 1018C1619.04 1021.21 1613.33 1022.88 1607.5 1022.8Z" fill="black"/>
<path id="Vector_45" d="M1607.5 1021.05C1601.33 1021.13 1595.31 1019.22 1590.4 1015.62H1588.91C1583.82 1020.11 1577.13 1022.53 1570.24 1022.4C1566.65 1022.48 1563.09 1021.85 1559.76 1020.57C1556.43 1019.28 1553.41 1017.35 1550.87 1014.9H1548.89C1543.67 1019.01 1537.1 1021.2 1530.37 1021.08C1523.63 1020.96 1517.15 1018.54 1512.09 1014.26L1504.99 1014.13C1504.99 1014.13 1513.3 1035.49 1508.33 1048.81L1629.62 1050.89C1628.68 1039.44 1628.97 1027.93 1630.49 1016.53V1016.37L1623.83 1016.25C1619.04 1019.46 1613.33 1021.13 1607.5 1021.05V1021.05Z" fill="#3F3D56"/>
<path id="Vector_46" opacity="0.1" d="M1602.11 904.332C1602.11 904.332 1627.64 905.907 1627.8 909.408C1627.97 912.909 1602.11 904.332 1602.11 904.332Z" fill="black"/>
<path id="Vector_47" opacity="0.1" d="M1540.07 889.401C1540.07 889.401 1514.54 890.976 1514.37 894.477C1514.21 897.978 1540.07 889.401 1540.07 889.401Z" fill="black"/>
<path id="Vector_48" opacity="0.1" d="M1637.66 960.974C1637.4 960.799 1637.15 960.659 1636.9 960.502C1643.43 966.173 1642.34 978.566 1634.32 988.788C1626.3 999.01 1614.12 1003.26 1606.72 998.678C1606.95 998.87 1607.15 999.08 1607.4 999.273C1614.66 1004.63 1627.37 1000.43 1635.75 989.856C1644.14 979.283 1644.95 966.348 1637.66 960.974Z" fill="black"/>
<path id="Vector_49" opacity="0.1" d="M1497.39 987.475C1490.93 976.238 1491.76 963.827 1499.07 959.119C1498.8 959.241 1498.51 959.346 1498.24 959.486C1490.22 963.792 1489.17 976.693 1495.81 988.315C1502.45 999.938 1514.43 1005.82 1522.45 1001.58C1522.72 1001.44 1522.97 1001.27 1523.21 1001.09C1515.21 1004.59 1503.85 998.713 1497.39 987.475Z" fill="black"/>
<path id="Vector_50" opacity="0.1" d="M1506.03 892.709L1503.68 896.21L1497.71 893.147L1500.85 888.491C1502.93 889.437 1504.71 890.892 1506.03 892.709V892.709Z" fill="black"/>
<path id="Vector_51" d="M1468.09 1022.26C1468.09 1022.26 1473.41 998.135 1466.28 990.468C1459.15 982.802 1461.43 942.613 1472.32 943.488C1483.21 944.363 1499.55 976.15 1496.82 982.872C1494.1 989.593 1483.81 1024.01 1483.81 1024.01L1468.09 1022.26Z" fill="#FBBEBE"/>
<path id="Vector_52" opacity="0.1" d="M1638.86 848.232C1637.6 850.382 1635.76 852.157 1633.52 853.36C1631.25 854.364 1628.75 854.797 1626.26 854.621C1623.81 854.635 1621.39 854.127 1619.17 853.133C1613.12 850.227 1610.87 843.261 1608.04 837.379C1607.68 836.318 1607.04 835.365 1606.19 834.614C1604.72 833.969 1603.14 833.595 1601.52 833.511C1598.13 832.776 1595.68 829.923 1594.12 826.947C1592.56 823.971 1591.63 820.681 1589.85 817.828C1588.08 814.974 1585.06 812.471 1581.6 812.576C1579.34 812.865 1577.14 813.485 1575.08 814.414C1572.15 815.323 1569.02 815.501 1565.99 814.932C1562.96 814.363 1560.14 813.065 1557.77 811.159C1556.31 809.631 1554.58 808.374 1552.65 807.448C1551.34 807.077 1549.97 806.941 1548.6 807.045C1546.52 807.045 1544.45 807.238 1542.36 807.395C1541.33 808.703 1540.22 809.953 1539.04 811.141C1542.21 810.879 1545.41 810.616 1548.6 810.546C1549.97 810.441 1551.34 810.578 1552.65 810.949C1554.58 811.874 1556.31 813.132 1557.77 814.659C1560.14 816.566 1562.96 817.864 1565.99 818.433C1569.02 819.002 1572.15 818.824 1575.08 817.915C1577.14 816.985 1579.34 816.366 1581.6 816.077C1585.06 816.077 1588.06 818.528 1589.85 821.328C1591.65 824.129 1592.58 827.455 1594.12 830.448C1595.66 833.441 1598.13 836.277 1601.52 837.012C1603.14 837.096 1604.72 837.47 1606.19 838.115C1607.1 838.83 1607.8 839.766 1608.22 840.828C1611.05 846.726 1613.3 853.693 1619.35 856.581C1621.57 857.575 1623.99 858.083 1626.44 858.069C1628.93 858.245 1631.43 857.812 1633.7 856.809C1635.94 855.605 1637.78 853.831 1639.04 851.68C1641.86 846.732 1643.12 841.1 1642.67 835.471C1642.53 839.966 1641.22 844.355 1638.86 848.232V848.232Z" fill="black"/>
<path id="Vector_53" d="M1476.13 1041.39C1485.16 1041.39 1492.47 1036.61 1492.47 1030.71C1492.47 1024.81 1485.16 1020.03 1476.13 1020.03C1467.11 1020.03 1459.8 1024.81 1459.8 1030.71C1459.8 1036.61 1467.11 1041.39 1476.13 1041.39Z" fill="#575A89"/>
<path id="Vector_54" d="M943.721 1625.05C1252.94 1625.05 1503.61 1383.29 1503.61 1085.06C1503.61 786.828 1252.94 545.064 943.721 545.064C634.501 545.064 383.829 786.828 383.829 1085.06C383.829 1383.29 634.501 1625.05 943.721 1625.05Z" fill="#22B066"/>
<path id="Vector_55" d="M1237.5 1356.42C1237.5 1441.67 1098.55 1363.7 949.583 1363.7C800.617 1363.7 649.946 1438.45 649.946 1353.2C649.946 1304.59 697.967 1236.99 766.86 1187.89C818.766 1150.89 882.505 1124.39 946.534 1124.39C1012.38 1124.39 1076.88 1153.08 1128.33 1192.46C1193.27 1242.12 1237.5 1308.85 1237.5 1356.42Z" fill="#444053"/>
<path id="Vector_56" d="M1128.31 1192.43C1049.13 1180.93 905.917 1166.91 766.86 1187.86C818.766 1150.86 882.505 1124.36 946.534 1124.36C1012.36 1124.36 1076.86 1153.04 1128.31 1192.43Z" fill="#F6F8FB"/>
<path id="Vector_57" opacity="0.05" d="M649.946 703.877C649.946 703.877 481.289 807.868 482.668 970.532C484.047 1133.2 649.946 703.877 649.946 703.877Z" fill="black"/>
<g id="leadGroup">
    <g id="leaf1Rotation">
        <path id="leaf2" d="M1503.39 410.179C1503.39 410.179 1350.58 401.305 1368.6 504.578C1368.6 504.578 1364.97 522.817 1382.18 531.114C1382.18 531.114 1382.45 523.465 1397.84 526.055C1403.33 526.94 1408.9 527.199 1414.45 526.825C1421.94 526.334 1429.07 523.494 1434.74 518.739V518.739C1434.74 518.739 1477.7 501.637 1494.41 433.915C1494.41 433.915 1506.77 419.141 1506.28 415.361L1480.49 425.968C1480.49 425.968 1489.29 443.909 1482.31 458.823C1482.31 458.823 1481.47 426.633 1476.52 427.316C1475.52 427.473 1463.12 433.53 1463.12 433.53C1463.12 433.53 1478.28 464.792 1466.75 487.494C1466.75 487.494 1471.09 448.986 1458.29 435.788L1440.15 446.01C1440.15 446.01 1457.86 478.287 1445.84 504.63C1445.84 504.63 1448.93 464.231 1436.33 448.495L1419.87 460.871C1419.87 460.871 1436.52 492.693 1426.37 514.538C1426.37 514.538 1425.05 467.505 1416.32 463.951C1416.32 463.951 1401.92 476.204 1399.73 481.228C1399.73 481.228 1411.13 504.315 1404.07 516.498C1404.07 516.498 1399.73 485.166 1396.17 484.991C1396.17 484.991 1381.83 505.751 1380.33 519.999C1380.33 519.999 1380.96 498.819 1392.69 483.013C1392.69 483.013 1378.82 485.306 1370.74 493.988C1370.74 493.988 1372.98 479.302 1396.15 478.025C1396.15 478.025 1408 462.271 1411.18 461.326C1411.18 461.326 1388.04 459.453 1374.01 465.457C1374.01 465.457 1386.35 451.611 1415.41 457.895L1431.74 445.117C1431.74 445.117 1401.29 441.091 1388.37 445.537C1388.37 445.537 1403.23 433.285 1436.12 442.212L1453.81 432.007C1453.81 432.007 1427.84 426.616 1412.36 428.506C1412.36 428.506 1428.69 420.017 1458.98 429.224L1471.69 423.745C1471.69 423.745 1452.65 420.139 1447.08 419.579C1441.51 419.019 1441.22 417.514 1441.22 417.514C1453.31 415.618 1465.71 417.006 1477.02 421.522C1477.02 421.522 1503.85 411.807 1503.39 410.179Z" fill="#22B066"/>
    </g>
    <path id="leaf1" d="M1346.66 364.267C1346.66 364.267 1277.7 360.241 1285.75 406.906C1285.75 406.906 1284.14 415.15 1291.89 418.896C1291.89 418.896 1292 415.396 1298.97 416.621C1301.44 417.014 1303.96 417.131 1306.46 416.971C1309.85 416.738 1313.07 415.454 1315.64 413.313V413.313C1315.64 413.313 1335.05 405.576 1342.6 374.979C1342.6 374.979 1348.19 368.31 1348.04 366.595L1336.39 371.391C1336.39 371.391 1340.38 379.495 1337.24 386.234C1337.24 386.234 1336.86 371.688 1334.63 372.038C1334.17 372.038 1328.57 374.839 1328.57 374.839C1328.57 374.839 1335.43 388.965 1330.25 399.222C1330.25 399.222 1332.21 381.823 1326.44 375.854L1318.24 380.475C1318.24 380.475 1326.24 395.074 1320.82 406.976C1320.82 406.976 1322.2 388.72 1316.52 381.613L1309.07 387.197C1309.07 387.197 1316.59 401.567 1312.01 411.44C1312.01 411.44 1311.42 390.19 1307.46 388.58C1307.46 388.58 1300.96 394.111 1299.96 396.386C1299.96 396.386 1305.12 406.889 1301.92 412.332C1301.92 412.332 1299.96 398.172 1298.29 398.119C1298.29 398.119 1291.81 407.484 1291.14 413.873C1291.46 407.927 1293.38 402.164 1296.72 397.157C1292.98 397.838 1289.54 399.56 1286.81 402.11C1286.81 402.11 1287.8 395.476 1298.31 394.899C1298.31 394.899 1303.67 387.792 1305.1 387.354C1305.1 387.354 1294.65 386.514 1288.31 389.227C1288.31 389.227 1293.88 382.961 1307.02 385.726L1314.28 379.968C1314.28 379.968 1300.53 378.217 1294.68 380.143C1294.68 380.143 1301.4 374.611 1316.26 378.655L1324.25 374.034C1324.25 374.034 1312.52 371.601 1305.52 372.476C1305.52 372.476 1312.9 368.643 1326.59 372.809L1332.3 370.323C1332.3 370.323 1323.7 368.695 1321.2 368.45C1318.69 368.205 1318.53 367.522 1318.53 367.522C1323.98 366.648 1329.57 367.254 1334.68 369.273C1334.68 369.273 1346.86 365.002 1346.66 364.267Z" fill="#22B066"/>
</g>
<path id="Vector_58" opacity="0.1" d="M1949.35 1566.8C1976.34 1566.8 1998.22 1563.24 1998.22 1558.84C1998.22 1554.44 1976.34 1550.87 1949.35 1550.87C1922.35 1550.87 1900.47 1554.44 1900.47 1558.84C1900.47 1563.24 1922.35 1566.8 1949.35 1566.8Z" fill="#22B066"/>
<path id="Vector_59" opacity="0.1" d="M86.697 1699.29C113.69 1699.29 135.572 1695.72 135.572 1691.32C135.572 1686.93 113.69 1683.36 86.697 1683.36C59.7042 1683.36 37.8222 1686.93 37.8222 1691.32C37.8222 1695.72 59.7042 1699.29 86.697 1699.29Z" fill="#22B066"/>
<path id="Vector_60" opacity="0.1" d="M370.417 1709.28C397.41 1709.28 419.292 1705.72 419.292 1701.32C419.292 1696.92 397.41 1693.35 370.417 1693.35C343.425 1693.35 321.543 1696.92 321.543 1701.32C321.543 1705.72 343.425 1709.28 370.417 1709.28Z" fill="#22B066"/>
<path id="Vector_61" d="M1842.38 1656.09C1882.68 1656.09 1915.35 1650.76 1915.35 1644.19C1915.35 1637.61 1882.68 1632.28 1842.38 1632.28C1802.07 1632.28 1769.4 1637.61 1769.4 1644.19C1769.4 1650.76 1802.07 1656.09 1842.38 1656.09Z" fill="#22B066"/>
<path id="Vector_62" d="M1872.54 1624.74C1875.87 1622.12 1878.3 1618.58 1879.51 1614.6C1880.4 1610.6 1878.62 1605.77 1874.65 1604.29C1870.18 1602.65 1865.41 1605.64 1861.8 1608.65C1858.19 1611.66 1854.03 1615.09 1849.29 1614.46C1851.73 1612.34 1853.55 1609.64 1854.58 1606.63C1855.61 1603.62 1855.82 1600.4 1855.17 1597.29C1854.97 1596.01 1854.4 1594.8 1853.54 1593.79C1851.05 1591.24 1846.57 1592.32 1843.59 1594.34C1834.16 1600.74 1831.52 1613.1 1831.47 1624.23C1830.53 1620.22 1831.33 1616.04 1831.31 1611.98C1831.29 1607.92 1830.11 1603.23 1826.52 1601.07C1824.29 1599.93 1821.78 1599.36 1819.26 1599.43C1815.01 1599.27 1810.29 1599.67 1807.39 1602.67C1803.76 1606.4 1804.72 1612.63 1807.86 1616.67C1811 1620.71 1815.75 1623.34 1820.13 1626.16C1823.65 1628.18 1826.65 1630.93 1828.91 1634.23C1829.18 1634.69 1829.39 1635.18 1829.56 1635.68H1856.15C1862.1 1632.76 1867.61 1629.08 1872.54 1624.74V1624.74Z" fill="#22B066"/>
<path id="Vector_63" d="M109.51 1477.97C109.51 1477.97 119.474 1490.54 104.9 1509.48C90.3267 1528.42 78.3122 1544.48 83.1217 1556.32C83.1217 1556.32 105.1 1521.06 123.049 1520.56C140.998 1520.05 129.183 1499.17 109.51 1477.97Z" fill="#22B066"/>
<path id="Vector_64" opacity="0.1" d="M109.51 1477.97C110.375 1479.18 111.059 1480.51 111.543 1481.91C129.002 1501.69 138.294 1520.15 121.525 1520.61C105.88 1521.05 87.0418 1548 82.6316 1554.81C82.7858 1555.34 82.9675 1555.86 83.1761 1556.37C83.1761 1556.37 105.154 1521.12 123.103 1520.61C141.053 1520.1 129.183 1499.17 109.51 1477.97Z" fill="black"/>
<path id="Vector_65" d="M128.04 1493.99C128.04 1498.41 127.514 1502 126.878 1502C126.243 1502 125.735 1498.5 125.735 1493.99C125.735 1489.47 126.37 1491.64 127.024 1491.64C127.677 1491.64 128.04 1489.56 128.04 1493.99Z" fill="#FFD037"/>
<path id="Vector_66" d="M134.319 1499.27C130.29 1501.39 126.788 1502.67 126.479 1502.12C126.171 1501.58 129.201 1499.45 133.231 1497.33C137.26 1495.21 135.662 1496.75 135.971 1497.33C136.28 1497.91 138.421 1497.15 134.319 1499.27Z" fill="#FFD037"/>
<path id="Vector_67" d="M56.8421 1477.97C56.8421 1477.97 46.8784 1490.54 61.4337 1509.48C75.9891 1528.42 88.0218 1544.48 83.2123 1556.32C83.2123 1556.32 61.216 1521.06 43.2849 1520.56C25.3539 1520.05 37.1506 1499.17 56.8421 1477.97Z" fill="#22B066"/>
<path id="Vector_68" opacity="0.1" d="M56.8421 1477.97C55.9689 1479.18 55.2841 1480.51 54.8095 1481.91C37.3503 1501.69 28.04 1520.15 44.8276 1520.61C60.4537 1521.05 79.3104 1548 83.7024 1554.81C83.5543 1555.34 83.3787 1555.86 83.1761 1556.37C83.1761 1556.37 61.1797 1521.12 43.2487 1520.61C25.3176 1520.1 37.1507 1499.17 56.8421 1477.97Z" fill="black"/>
<path id="Vector_69" d="M38.3122 1493.99C38.3122 1498.41 38.8204 1502 39.4556 1502C40.0908 1502 40.5989 1498.5 40.5989 1493.99C40.5989 1489.47 39.9637 1491.64 39.3285 1491.64C38.6933 1491.64 38.3122 1489.56 38.3122 1493.99Z" fill="#FFD037"/>
<path id="Vector_70" d="M31.942 1499.27C35.971 1501.39 39.4919 1502.67 39.8004 1502.12C40.1089 1501.58 37.0781 1499.45 33.049 1497.33C29.02 1495.21 30.5989 1496.75 30.3086 1497.33C30.0182 1497.91 27.9129 1497.15 31.942 1499.27Z" fill="#FFD037"/>
<path id="Vector_71" d="M41.4882 1554.72C41.4882 1554.72 69.3648 1553.9 77.7859 1548.12C86.2069 1542.35 120.672 1535.47 122.759 1544.62C124.846 1553.78 164.646 1590.66 133.176 1590.9C101.706 1591.15 60.0545 1586.16 51.6697 1581.24C43.285 1576.32 41.4882 1554.72 41.4882 1554.72Z" fill="#A8A8A8"/>
<path id="Vector_72" opacity="0.2" d="M133.702 1587.77C102.232 1588.02 60.5808 1583.03 52.196 1578.11C45.8076 1574.36 43.2668 1560.9 42.4138 1554.69H41.4882C41.4882 1554.69 43.3031 1576.38 51.6334 1581.29C59.9637 1586.21 101.67 1591.2 133.14 1590.96C142.214 1590.96 145.354 1587.75 145.191 1583.15C143.92 1585.97 140.472 1587.72 133.702 1587.77Z" fill="black"/>
<path id="Vector_73" d="M744.664 1014.26C755.318 1013.68 805.463 1010.04 837.314 992.516C842.429 989.614 848.208 987.972 854.138 987.738C864.265 987.458 875.917 991.536 868.457 1014.36C856.37 1051.7 786.189 1093.71 742.632 1091.38C700.744 1089.14 651.053 1072.86 618.24 1015.62C615.096 1010.11 613.547 1003.89 613.757 997.61C614.138 986.057 618.494 971.582 640.98 987.72C671.361 1009.51 729.002 1013.64 740.563 1014.26C741.929 1014.33 743.298 1014.33 744.664 1014.26V1014.26Z" fill="#444053"/>
<path id="Vector_74" d="M1147.56 1014.58C1158.17 1014.01 1208.1 1010.38 1239.82 992.933C1244.91 990.043 1250.67 988.408 1256.57 988.174C1266.66 987.896 1278.26 991.957 1270.83 1014.69C1258.79 1051.86 1188.91 1093.7 1145.53 1091.38C1103.82 1089.15 1054.34 1072.94 1021.67 1015.94C1018.54 1010.46 1016.99 1004.26 1017.2 998.005C1017.58 986.501 1021.92 972.086 1044.31 988.157C1074.56 1009.86 1131.96 1013.97 1143.47 1014.58C1144.83 1014.65 1146.2 1014.65 1147.56 1014.58Z" fill="#444053"/>
</g>
</g>
<defs>
<linearGradient id="paint0_linear_1_2" x1="1620.94" y1="1615.78" x2="1620.94" y2="751.015" gradientUnits="userSpaceOnUse">
<stop stop-color="#808080" stop-opacity="0.25"/>
<stop offset="0.54" stop-color="#808080" stop-opacity="0.12"/>
<stop offset="1" stop-color="#808080" stop-opacity="0.1"/>
</linearGradient>
<clipPath id="clip0_1_2">
<rect width="2000" height="2000" fill="white"/>
</clipPath>
</defs>
</svg>
