<svg width="1440" height="490" viewBox="0 0 1440 490" fill="none" xmlns="http://www.w3.org/2000/svg">
<g clip-path="url(#clip0_17_20)">
<path d="M0 343L48 326.7C96 310 192 278 288 277.7C384 278 480 310 576 326.7C672 343 768 343 864 294C960 245 1056 147 1152 122.5C1248 98 1344 147 1440 187.8C1536 229 1632 261 1728 236.8C1824 212 1920 131 2016 114.3C2112 98 2208 147 2304 155.2C2400 163 2496 131 2592 163.3C2688 196 2784 294 2880 334.8C2976 376 3072 359 3168 294C3264 229 3360 114 3456 81.7C3552 49 3648 98 3744 147C3840 196 3936 245 4032 236.8C4128 229 4224 163 4320 171.5C4416 180 4512 261 4608 318.5C4704 376 4800 408 4896 416.5C4992 425 5088 408 5184 334.8C5280 261 5376 131 5472 114.3C5568 98 5664 196 5760 261.3C5856 327 5952 359 6048 343C6144 327 6240 261 6336 245C6432 229 6528 261 6624 302.2C6720 343 6816 392 6864 416.5L6912 441V490H6864C6816 490 6720 490 6624 490C6528 490 6432 490 6336 490C6240 490 6144 490 6048 490C5952 490 5856 490 5760 490C5664 490 5568 490 5472 490C5376 490 5280 490 5184 490C5088 490 4992 490 4896 490C4800 490 4704 490 4608 490C4512 490 4416 490 4320 490C4224 490 4128 490 4032 490C3936 490 3840 490 3744 490C3648 490 3552 490 3456 490C3360 490 3264 490 3168 490C3072 490 2976 490 2880 490C2784 490 2688 490 2592 490C2496 490 2400 490 2304 490C2208 490 2112 490 2016 490C1920 490 1824 490 1728 490C1632 490 1536 490 1440 490C1344 490 1248 490 1152 490C1056 490 960 490 864 490C768 490 672 490 576 490C480 490 384 490 288 490C192 490 96 490 48 490H0V343Z" fill="url(#paint0_linear_17_20)"/>
<path opacity="0.9" d="M0 0L48 65.3C96 131 192 261 288 310.3C384 359 480 327 576 261.3C672 196 768 98 864 81.7C960 65 1056 131 1152 130.7C1248 131 1344 65 1440 65.3C1536 65 1632 131 1728 171.5C1824 212 1920 229 2016 228.7C2112 229 2208 212 2304 171.5C2400 131 2496 65 2592 98C2688 131 2784 261 2880 277.7C2976 294 3072 196 3168 155.2C3264 114 3360 131 3456 114.3C3552 98 3648 49 3744 32.7C3840 16 3936 33 4032 57.2C4128 82 4224 114 4320 122.5C4416 131 4512 114 4608 155.2C4704 196 4800 294 4896 326.7C4992 359 5088 327 5184 318.5C5280 310 5376 327 5472 277.7C5568 229 5664 114 5760 130.7C5856 147 5952 294 6048 351.2C6144 408 6240 376 6336 367.5C6432 359 6528 376 6624 375.7C6720 376 6816 359 6864 351.2L6912 343V490H6864C6816 490 6720 490 6624 490C6528 490 6432 490 6336 490C6240 490 6144 490 6048 490C5952 490 5856 490 5760 490C5664 490 5568 490 5472 490C5376 490 5280 490 5184 490C5088 490 4992 490 4896 490C4800 490 4704 490 4608 490C4512 490 4416 490 4320 490C4224 490 4128 490 4032 490C3936 490 3840 490 3744 490C3648 490 3552 490 3456 490C3360 490 3264 490 3168 490C3072 490 2976 490 2880 490C2784 490 2688 490 2592 490C2496 490 2400 490 2304 490C2208 490 2112 490 2016 490C1920 490 1824 490 1728 490C1632 490 1536 490 1440 490C1344 490 1248 490 1152 490C1056 490 960 490 864 490C768 490 672 490 576 490C480 490 384 490 288 490C192 490 96 490 48 490H0V0Z" fill="url(#paint1_linear_17_20)"/>
<path opacity="0.8" d="M0 98L48 89.8C96 82 192 65 288 81.7C384 98 480 147 576 171.5C672 196 768 196 864 236.8C960 278 1056 359 1152 359.3C1248 359 1344 278 1440 228.7C1536 180 1632 163 1728 163.3C1824 163 1920 180 2016 179.7C2112 180 2208 163 2304 204.2C2400 245 2496 343 2592 351.2C2688 359 2784 278 2880 245C2976 212 3072 229 3168 228.7C3264 229 3360 212 3456 179.7C3552 147 3648 98 3744 122.5C3840 147 3936 245 4032 269.5C4128 294 4224 245 4320 204.2C4416 163 4512 131 4608 114.3C4704 98 4800 98 4896 138.8C4992 180 5088 261 5184 269.5C5280 278 5376 212 5472 212.3C5568 212 5664 278 5760 277.7C5856 278 5952 212 6048 220.5C6144 229 6240 310 6336 326.7C6432 343 6528 294 6624 277.7C6720 261 6816 278 6864 285.8L6912 294V490H6864C6816 490 6720 490 6624 490C6528 490 6432 490 6336 490C6240 490 6144 490 6048 490C5952 490 5856 490 5760 490C5664 490 5568 490 5472 490C5376 490 5280 490 5184 490C5088 490 4992 490 4896 490C4800 490 4704 490 4608 490C4512 490 4416 490 4320 490C4224 490 4128 490 4032 490C3936 490 3840 490 3744 490C3648 490 3552 490 3456 490C3360 490 3264 490 3168 490C3072 490 2976 490 2880 490C2784 490 2688 490 2592 490C2496 490 2400 490 2304 490C2208 490 2112 490 2016 490C1920 490 1824 490 1728 490C1632 490 1536 490 1440 490C1344 490 1248 490 1152 490C1056 490 960 490 864 490C768 490 672 490 576 490C480 490 384 490 288 490C192 490 96 490 48 490H0V98Z" fill="url(#paint2_linear_17_20)"/>
<path opacity="0.7" d="M0 0L48 8.2C96 16 192 33 288 49C384 65 480 82 576 114.3C672 147 768 196 864 253.2C960 310 1056 376 1152 334.8C1248 294 1344 147 1440 89.8C1536 33 1632 65 1728 65.3C1824 65 1920 33 2016 40.8C2112 49 2208 98 2304 130.7C2400 163 2496 180 2592 204.2C2688 229 2784 261 2880 261.3C2976 261 3072 229 3168 236.8C3264 245 3360 294 3456 294C3552 294 3648 245 3744 228.7C3840 212 3936 229 4032 212.3C4128 196 4224 147 4320 114.3C4416 82 4512 65 4608 57.2C4704 49 4800 49 4896 106.2C4992 163 5088 278 5184 269.5C5280 261 5376 131 5472 130.7C5568 131 5664 261 5760 294C5856 327 5952 261 6048 253.2C6144 245 6240 294 6336 326.7C6432 359 6528 376 6624 343C6720 310 6816 229 6864 187.8L6912 147V490H6864C6816 490 6720 490 6624 490C6528 490 6432 490 6336 490C6240 490 6144 490 6048 490C5952 490 5856 490 5760 490C5664 490 5568 490 5472 490C5376 490 5280 490 5184 490C5088 490 4992 490 4896 490C4800 490 4704 490 4608 490C4512 490 4416 490 4320 490C4224 490 4128 490 4032 490C3936 490 3840 490 3744 490C3648 490 3552 490 3456 490C3360 490 3264 490 3168 490C3072 490 2976 490 2880 490C2784 490 2688 490 2592 490C2496 490 2400 490 2304 490C2208 490 2112 490 2016 490C1920 490 1824 490 1728 490C1632 490 1536 490 1440 490C1344 490 1248 490 1152 490C1056 490 960 490 864 490C768 490 672 490 576 490C480 490 384 490 288 490C192 490 96 490 48 490H0V0Z" fill="url(#paint3_linear_17_20)"/>
</g>
<defs>
<linearGradient id="paint0_linear_17_20" x1="0" y1="490" x2="0" y2="71.105" gradientUnits="userSpaceOnUse">
<stop stop-color="#22B066" stop-opacity="0.59"/>
<stop offset="1" stop-color="#22B066" stop-opacity="0.360784"/>
</linearGradient>
<linearGradient id="paint1_linear_17_20" x1="0" y1="490" x2="0" y2="0" gradientUnits="userSpaceOnUse">
<stop stop-color="#22B066" stop-opacity="0.360784"/>
<stop offset="1" stop-color="#22B066" stop-opacity="0.360784"/>
</linearGradient>
<linearGradient id="paint2_linear_17_20" x1="0" y1="490" x2="0" y2="74.6064" gradientUnits="userSpaceOnUse">
<stop stop-color="#22B066" stop-opacity="0.360784"/>
<stop offset="1" stop-color="#22B066" stop-opacity="0.360784"/>
</linearGradient>
<linearGradient id="paint3_linear_17_20" x1="0" y1="490" x2="0" y2="0" gradientUnits="userSpaceOnUse">
<stop stop-color="#22B066" stop-opacity="0.360784"/>
<stop offset="1" stop-color="#22B066" stop-opacity="0.360784"/>
</linearGradient>
<clipPath id="clip0_17_20">
<rect width="1440" height="490" fill="white"/>
</clipPath>
</defs>
</svg>
