<svg width="1440" height="490" viewBox="0 0 1440 490" fill="none" xmlns="http://www.w3.org/2000/svg">
<g clip-path="url(#clip0_17_15)">
<path d="M1440 147L1392 163.3C1344 180 1248 212 1152 212.3C1056 212 960 180 864 163.3C768 147 672 147 576 196C480 245 384 343 288 367.5C192 392 96 343 0 302.2C-96 261 -192 229 -288 253.2C-384 278 -480 359 -576 375.7C-672 392 -768 343 -864 334.8C-960 327 -1056 359 -1152 326.7C-1248 294 -1344 196 -1440 155.2C-1536 114 -1632 131 -1728 196C-1824 261 -1920 376 -2016 408.3C-2112 441 -2208 392 -2304 343C-2400 294 -2496 245 -2592 253.2C-2688 261 -2784 327 -2880 318.5C-2976 310 -3072 229 -3168 171.5C-3264 114 -3360 82 -3456 73.5C-3552 65 -3648 82 -3744 155.2C-3840 229 -3936 359 -4032 375.7C-4128 392 -4224 294 -4320 228.7C-4416 163 -4512 131 -4608 147C-4704 163 -4800 229 -4896 245C-4992 261 -5088 229 -5184 187.8C-5280 147 -5376 98 -5424 73.5L-5472 49V3.05176e-05H-5424C-5376 3.05176e-05 -5280 3.05176e-05 -5184 3.05176e-05C-5088 3.05176e-05 -4992 3.05176e-05 -4896 3.05176e-05C-4800 3.05176e-05 -4704 3.05176e-05 -4608 3.05176e-05C-4512 3.05176e-05 -4416 3.05176e-05 -4320 3.05176e-05C-4224 3.05176e-05 -4128 3.05176e-05 -4032 3.05176e-05C-3936 3.05176e-05 -3840 3.05176e-05 -3744 3.05176e-05C-3648 3.05176e-05 -3552 3.05176e-05 -3456 3.05176e-05C-3360 3.05176e-05 -3264 3.05176e-05 -3168 3.05176e-05C-3072 3.05176e-05 -2976 3.05176e-05 -2880 3.05176e-05C-2784 3.05176e-05 -2688 3.05176e-05 -2592 3.05176e-05C-2496 3.05176e-05 -2400 3.05176e-05 -2304 3.05176e-05C-2208 3.05176e-05 -2112 3.05176e-05 -2016 3.05176e-05C-1920 3.05176e-05 -1824 3.05176e-05 -1728 3.05176e-05C-1632 3.05176e-05 -1536 3.05176e-05 -1440 3.05176e-05C-1344 3.05176e-05 -1248 3.05176e-05 -1152 3.05176e-05C-1056 3.05176e-05 -960 3.05176e-05 -864 3.05176e-05C-768 3.05176e-05 -672 3.05176e-05 -576 3.05176e-05C-480 3.05176e-05 -384 3.05176e-05 -288 3.05176e-05C-192 3.05176e-05 -96 3.05176e-05 0 3.05176e-05C96 3.05176e-05 192 3.05176e-05 288 3.05176e-05C384 3.05176e-05 480 3.05176e-05 576 3.05176e-05C672 3.05176e-05 768 3.05176e-05 864 3.05176e-05C960 3.05176e-05 1056 3.05176e-05 1152 3.05176e-05C1248 3.05176e-05 1344 3.05176e-05 1392 3.05176e-05H1440V147Z" fill="url(#paint0_linear_17_15)"/>
<path opacity="0.9" d="M1440 490L1392 424.7C1344 359 1248 229 1152 179.7C1056 131 960 163 864 228.7C768 294 672 392 576 408.3C480 425 384 359 288 359.3C192 359 96 425 0 424.7C-96 425 -192 359 -288 318.5C-384 278 -480 261 -576 261.3C-672 261 -768 278 -864 318.5C-960 359 -1056 425 -1152 392C-1248 359 -1344 229 -1440 212.3C-1536 196 -1632 294 -1728 334.8C-1824 376 -1920 359 -2016 375.7C-2112 392 -2208 441 -2304 457.3C-2400 474 -2496 457 -2592 432.8C-2688 408 -2784 376 -2880 367.5C-2976 359 -3072 376 -3168 334.8C-3264 294 -3360 196 -3456 163.3C-3552 131 -3648 163 -3744 171.5C-3840 180 -3936 163 -4032 212.3C-4128 261 -4224 376 -4320 359.3C-4416 343 -4512 196 -4608 138.8C-4704 82 -4800 114 -4896 122.5C-4992 131 -5088 114 -5184 114.3C-5280 114 -5376 131 -5424 138.8L-5472 147V0H-5424C-5376 0 -5280 0 -5184 0C-5088 0 -4992 0 -4896 0C-4800 0 -4704 0 -4608 0C-4512 0 -4416 0 -4320 0C-4224 0 -4128 0 -4032 0C-3936 0 -3840 0 -3744 0C-3648 0 -3552 0 -3456 0C-3360 0 -3264 0 -3168 0C-3072 0 -2976 0 -2880 0C-2784 0 -2688 0 -2592 0C-2496 0 -2400 0 -2304 0C-2208 0 -2112 0 -2016 0C-1920 0 -1824 0 -1728 0C-1632 0 -1536 0 -1440 0C-1344 0 -1248 0 -1152 0C-1056 0 -960 0 -864 0C-768 0 -672 0 -576 0C-480 0 -384 0 -288 0C-192 0 -96 0 0 0C96 0 192 0 288 0C384 0 480 0 576 0C672 0 768 0 864 0C960 0 1056 0 1152 0C1248 0 1344 0 1392 0H1440V490Z" fill="url(#paint1_linear_17_15)"/>
<path opacity="0.8" d="M1440 392L1392 400.2C1344 408 1248 425 1152 408.3C1056 392 960 343 864 318.5C768 294 672 294 576 253.2C480 212 384 131 288 130.7C192 131 96 212 0 261.3C-96 310 -192 327 -288 326.7C-384 327 -480 310 -576 310.3C-672 310 -768 327 -864 285.8C-960 245 -1056 147 -1152 138.8C-1248 131 -1344 212 -1440 245C-1536 278 -1632 261 -1728 261.3C-1824 261 -1920 278 -2016 310.3C-2112 343 -2208 392 -2304 367.5C-2400 343 -2496 245 -2592 220.5C-2688 196 -2784 245 -2880 285.8C-2976 327 -3072 359 -3168 375.7C-3264 392 -3360 392 -3456 351.2C-3552 310 -3648 229 -3744 220.5C-3840 212 -3936 278 -4032 277.7C-4128 278 -4224 212 -4320 212.3C-4416 212 -4512 278 -4608 269.5C-4704 261 -4800 180 -4896 163.3C-4992 147 -5088 196 -5184 212.3C-5280 229 -5376 212 -5424 204.2L-5472 196V3.05176e-05H-5424C-5376 3.05176e-05 -5280 3.05176e-05 -5184 3.05176e-05C-5088 3.05176e-05 -4992 3.05176e-05 -4896 3.05176e-05C-4800 3.05176e-05 -4704 3.05176e-05 -4608 3.05176e-05C-4512 3.05176e-05 -4416 3.05176e-05 -4320 3.05176e-05C-4224 3.05176e-05 -4128 3.05176e-05 -4032 3.05176e-05C-3936 3.05176e-05 -3840 3.05176e-05 -3744 3.05176e-05C-3648 3.05176e-05 -3552 3.05176e-05 -3456 3.05176e-05C-3360 3.05176e-05 -3264 3.05176e-05 -3168 3.05176e-05C-3072 3.05176e-05 -2976 3.05176e-05 -2880 3.05176e-05C-2784 3.05176e-05 -2688 3.05176e-05 -2592 3.05176e-05C-2496 3.05176e-05 -2400 3.05176e-05 -2304 3.05176e-05C-2208 3.05176e-05 -2112 3.05176e-05 -2016 3.05176e-05C-1920 3.05176e-05 -1824 3.05176e-05 -1728 3.05176e-05C-1632 3.05176e-05 -1536 3.05176e-05 -1440 3.05176e-05C-1344 3.05176e-05 -1248 3.05176e-05 -1152 3.05176e-05C-1056 3.05176e-05 -960 3.05176e-05 -864 3.05176e-05C-768 3.05176e-05 -672 3.05176e-05 -576 3.05176e-05C-480 3.05176e-05 -384 3.05176e-05 -288 3.05176e-05C-192 3.05176e-05 -96 3.05176e-05 0 3.05176e-05C96 3.05176e-05 192 3.05176e-05 288 3.05176e-05C384 3.05176e-05 480 3.05176e-05 576 3.05176e-05C672 3.05176e-05 768 3.05176e-05 864 3.05176e-05C960 3.05176e-05 1056 3.05176e-05 1152 3.05176e-05C1248 3.05176e-05 1344 3.05176e-05 1392 3.05176e-05H1440V392Z" fill="url(#paint2_linear_17_15)"/>
<path opacity="0.7" d="M1440 490L1392 481.8C1344 474 1248 457 1152 441C1056 425 960 408 864 375.7C768 343 672 294 576 236.8C480 180 384 114 288 155.2C192 196 96 343 0 400.2C-96 457 -192 425 -288 424.7C-384 425 -480 457 -576 449.2C-672 441 -768 392 -864 359.3C-960 327 -1056 310 -1152 285.8C-1248 261 -1344 229 -1440 228.7C-1536 229 -1632 261 -1728 253.2C-1824 245 -1920 196 -2016 196C-2112 196 -2208 245 -2304 261.3C-2400 278 -2496 261 -2592 277.7C-2688 294 -2784 343 -2880 375.7C-2976 408 -3072 425 -3168 432.8C-3264 441 -3360 441 -3456 383.8C-3552 327 -3648 212 -3744 220.5C-3840 229 -3936 359 -4032 359.3C-4128 359 -4224 229 -4320 196C-4416 163 -4512 229 -4608 236.8C-4704 245 -4800 196 -4896 163.3C-4992 131 -5088 114 -5184 147C-5280 180 -5376 261 -5424 302.2L-5472 343V0H-5424C-5376 0 -5280 0 -5184 0C-5088 0 -4992 0 -4896 0C-4800 0 -4704 0 -4608 0C-4512 0 -4416 0 -4320 0C-4224 0 -4128 0 -4032 0C-3936 0 -3840 0 -3744 0C-3648 0 -3552 0 -3456 0C-3360 0 -3264 0 -3168 0C-3072 0 -2976 0 -2880 0C-2784 0 -2688 0 -2592 0C-2496 0 -2400 0 -2304 0C-2208 0 -2112 0 -2016 0C-1920 0 -1824 0 -1728 0C-1632 0 -1536 0 -1440 0C-1344 0 -1248 0 -1152 0C-1056 0 -960 0 -864 0C-768 0 -672 0 -576 0C-480 0 -384 0 -288 0C-192 0 -96 0 0 0C96 0 192 0 288 0C384 0 480 0 576 0C672 0 768 0 864 0C960 0 1056 0 1152 0C1248 0 1344 0 1392 0H1440V490Z" fill="url(#paint3_linear_17_15)"/>
</g>
<defs>
<linearGradient id="paint0_linear_17_15" x1="1440" y1="3.05176e-05" x2="1440" y2="418.895" gradientUnits="userSpaceOnUse">
<stop stop-color="#22B066" stop-opacity="0.59"/>
<stop offset="1" stop-color="#22B066" stop-opacity="0.360784"/>
</linearGradient>
<linearGradient id="paint1_linear_17_15" x1="1440" y1="0" x2="1440" y2="490" gradientUnits="userSpaceOnUse">
<stop stop-color="#22B066" stop-opacity="0.360784"/>
<stop offset="1" stop-color="#22B066" stop-opacity="0.360784"/>
</linearGradient>
<linearGradient id="paint2_linear_17_15" x1="1440" y1="3.05176e-05" x2="1440" y2="415.394" gradientUnits="userSpaceOnUse">
<stop stop-color="#22B066" stop-opacity="0.360784"/>
<stop offset="1" stop-color="#22B066" stop-opacity="0.360784"/>
</linearGradient>
<linearGradient id="paint3_linear_17_15" x1="1440" y1="0" x2="1440" y2="490" gradientUnits="userSpaceOnUse">
<stop stop-color="#22B066" stop-opacity="0.360784"/>
<stop offset="1" stop-color="#22B066" stop-opacity="0.360784"/>
</linearGradient>
<clipPath id="clip0_17_15">
<rect width="1440" height="490" fill="white" transform="translate(1440 490) rotate(-180)"/>
</clipPath>
</defs>
</svg>
